<svg width="165" height="62" viewBox="0 0 165 62" fill="none" xmlns="http://www.w3.org/2000/svg">
<path d="M66.7209 33.1534C66.1552 33.891 65.371 34.4496 64.3684 34.8292C63.3658 35.2088 62.2271 35.3985 60.9524 35.3985C59.6418 35.3985 58.4817 35.1013 57.4719 34.5069C56.4622 33.9125 55.6816 33.0639 55.1301 31.961C54.5859 30.851 54.303 29.5584 54.2815 28.0831V26.8585C54.2815 24.4952 54.8472 22.6511 55.9788 21.3263C57.1103 19.9942 58.6894 19.3282 60.7161 19.3282C62.4563 19.3282 63.8385 19.7579 64.8625 20.6173C65.8866 21.4767 66.5025 22.7156 66.7102 24.3341H64.0461C63.7454 22.4506 62.6532 21.5089 60.7698 21.5089C59.5523 21.5089 58.6249 21.9493 57.9875 22.8302C57.3573 23.7039 57.0315 24.9893 57.01 26.6866V27.8897C57.01 29.5798 57.3645 30.894 58.0735 31.8321C58.7896 32.7631 59.7815 33.2286 61.0491 33.2286C62.4384 33.2286 63.4267 32.9135 64.0139 32.2833V29.2218H60.7913V27.1593H66.7209V33.1534ZM75.5403 25.9454C75.1965 25.8881 74.842 25.8595 74.4768 25.8595C73.2808 25.8595 72.4752 26.3178 72.0598 27.2345V35.1837H69.4495V23.5606H71.9417L72.0061 24.8604C72.6363 23.8507 73.51 23.3458 74.6272 23.3458C74.9996 23.3458 75.3075 23.3959 75.551 23.4962L75.5403 25.9454ZM83.8118 35.1837C83.6972 34.9617 83.5969 34.6 83.511 34.0987C82.6803 34.9653 81.6633 35.3985 80.4602 35.3985C79.2929 35.3985 78.3404 35.0655 77.6028 34.3995C76.8652 33.7335 76.4963 32.9099 76.4963 31.9288C76.4963 30.6899 76.9547 29.741 77.8713 29.0821C78.7952 28.4161 80.1129 28.0831 81.8245 28.0831H83.425V27.3204C83.425 26.7188 83.2568 26.239 82.9202 25.881C82.5836 25.5157 82.0715 25.3331 81.384 25.3331C80.7896 25.3331 80.3027 25.4835 79.9231 25.7843C79.5435 26.0779 79.3538 26.4539 79.3538 26.9122H76.7434C76.7434 26.2748 76.9547 25.6804 77.3772 25.129C77.7997 24.5704 78.3726 24.1336 79.0959 23.8185C79.8264 23.5033 80.6392 23.3458 81.5344 23.3458C82.8951 23.3458 83.9801 23.6895 84.7893 24.377C85.5986 25.0574 86.0139 26.017 86.0354 27.256V32.4981C86.0354 33.5437 86.1822 34.378 86.4758 35.0011V35.1837H83.8118ZM80.9436 33.3038C81.4592 33.3038 81.9426 33.1785 82.3938 32.9278C82.8521 32.6772 83.1959 32.3406 83.425 31.9181V29.7267H82.0178C81.051 29.7267 80.3241 29.8949 79.8372 30.2315C79.3502 30.5681 79.1067 31.0444 79.1067 31.6602C79.1067 32.1615 79.2714 32.5626 79.6008 32.8634C79.9374 33.157 80.385 33.3038 80.9436 33.3038ZM92.6956 31.8751L95.1555 23.5606H97.8518L93.8235 35.1837H91.5569L87.4963 23.5606H90.2034L92.6956 31.8751ZM102.267 35.1837H99.6565V23.5606H102.267V35.1837ZM99.4954 20.5421C99.4954 20.141 99.6207 19.808 99.8713 19.5431C100.129 19.2781 100.494 19.1456 100.967 19.1456C101.44 19.1456 101.805 19.2781 102.063 19.5431C102.321 19.808 102.449 20.141 102.449 20.5421C102.449 20.936 102.321 21.2654 102.063 21.5304C101.805 21.7882 101.44 21.9171 100.967 21.9171C100.494 21.9171 100.129 21.7882 99.8713 21.5304C99.6207 21.2654 99.4954 20.936 99.4954 20.5421ZM107.896 35.1837H105.285V23.5606H107.896V35.1837ZM105.124 20.5421C105.124 20.141 105.25 19.808 105.5 19.5431C105.758 19.2781 106.123 19.1456 106.596 19.1456C107.069 19.1456 107.434 19.2781 107.692 19.5431C107.949 19.808 108.078 20.141 108.078 20.5421C108.078 20.936 107.949 21.2654 107.692 21.5304C107.434 21.7882 107.069 21.9171 106.596 21.9171C106.123 21.9171 105.758 21.7882 105.5 21.5304C105.25 21.2654 105.124 20.936 105.124 20.5421ZM112.375 32.4337C112.862 32.4337 113.238 32.5733 113.503 32.8526C113.768 33.1248 113.901 33.4685 113.901 33.8839C113.901 34.2921 113.768 34.6323 113.503 34.9044C113.238 35.1694 112.862 35.3018 112.375 35.3018C111.91 35.3018 111.541 35.1694 111.269 34.9044C110.997 34.6394 110.861 34.2992 110.861 33.8839C110.861 33.4685 110.993 33.1248 111.258 32.8526C111.523 32.5733 111.895 32.4337 112.375 32.4337Z" fill="#FF7008"/>
<path d="M119.315 23.5606L119.39 24.9034C120.249 23.865 121.377 23.3458 122.774 23.3458C125.194 23.3458 126.426 24.7315 126.469 27.503V35.1837H123.859V27.6534C123.859 26.9158 123.698 26.3715 123.375 26.0206C123.06 25.6625 122.541 25.4835 121.818 25.4835C120.765 25.4835 119.981 25.9597 119.465 26.9122V35.1837H116.855V23.5606H119.315ZM128.682 29.2862C128.682 27.4815 129.104 26.0421 129.949 24.9679C130.802 23.8865 131.93 23.3458 133.333 23.3458C134.658 23.3458 135.7 23.8077 136.459 24.7315L136.577 23.5606H138.93V34.8292C138.93 36.3546 138.454 37.5577 137.501 38.4386C136.556 39.3194 135.278 39.7599 133.666 39.7599C132.814 39.7599 131.98 39.5808 131.163 39.2227C130.354 38.8718 129.738 38.4099 129.316 37.837L130.551 36.2686C131.353 37.2211 132.341 37.6974 133.516 37.6974C134.382 37.6974 135.066 37.461 135.568 36.9884C136.069 36.5229 136.32 35.8354 136.32 34.9259V34.1417C135.568 34.9796 134.565 35.3985 133.312 35.3985C131.951 35.3985 130.837 34.8578 129.971 33.7765C129.112 32.6951 128.682 31.1983 128.682 29.2862ZM131.281 29.5118C131.281 30.6791 131.518 31.5994 131.99 32.2726C132.47 32.9386 133.133 33.2716 133.978 33.2716C135.031 33.2716 135.811 32.8204 136.32 31.9181V26.8048C135.825 25.9239 135.052 25.4835 133.999 25.4835C133.14 25.4835 132.47 25.8237 131.99 26.504C131.518 27.1843 131.281 28.1869 131.281 29.5118Z" fill="#343434"/>
<rect x="1" y="1" width="27.4184" height="48.6122" rx="3" stroke="#FF7008" stroke-width="2"/>
<rect x="9.80615" y="11.3878" width="29.4184" height="50.6122" rx="4" fill="#FF7008" fill-opacity="0.3"/>
</svg>
